<svg height="512pt" viewBox="0 0 512 512" width="512pt" xmlns="http://www.w3.org/2000/svg"><path d="m492 199v-28c0-11.046875-8.953125-20-20-20s-20 8.953125-20 20v28h-40v-99c0-11.046875-8.953125-20-20-20h-182c-11.046875 0-20 8.953125-20 20v212h-40v-232c0-22.054688 17.945312-40 40-40h222c22.054688 0 40 17.945312 40 40 0 11.046875 8.953125 20 20 20s20-8.953125 20-20c0-44.113281-35.886719-80-80-80h-222c-44.113281 0-80 35.886719-80 80v232h-10c-11.046875 0-20 8.953125-20 20v60h-40v-30c0-11.046875-8.953125-20-20-20s-20 8.953125-20 20v100c0 11.046875 8.953125 20 20 20s20-8.953125 20-20v-30h40v60c0 11.046875 8.953125 20 20 20h140c11.046875 0 20-8.953125 20-20v-160c0-11.046875-8.953125-20-20-20h-10v-192h142v79c-11.046875 0-20 8.953125-20 20s8.953125 20 20 20h120c11.046875 0 20-8.953125 20-20s-8.953125-20-20-20zm-272 273h-100v-120h100zm204-80c0 11.046875-8.953125 20-20 20s-20-8.953125-20-20c0-20.789062 14.449219-33.585938 26.054688-43.867188 11.128906-9.855468 17.945312-16.390624 17.945312-26.132812 0-11.046875 8.953125-20 20-20s20 8.953125 20 20c0 28.242188-18.160156 44.328125-31.421875 56.074219-5.007813 4.4375-12.578125 11.140625-12.578125 13.925781zm82 30c0 28.242188-18.160156 44.328125-31.421875 56.074219-5.007813 4.4375-12.578125 11.140625-12.578125 13.925781 0 11.046875-8.953125 20-20 20s-20-8.953125-20-20c0-20.789062 14.449219-33.585938 26.054688-43.867188 11.128906-9.855468 17.945312-16.390624 17.945312-26.132812 0-11.046875 8.953125-20 20-20s20 8.953125 20 20zm0 0"/></svg>