<?xml version="1.0" encoding="UTF-8"?>
<svg xmlns="http://www.w3.org/2000/svg" width="512" height="512" viewBox="0 0 128 128"><g><path d="M120,26H110a2,2,0,0,0-2,2v8h-2a6.006,6.006,0,0,0-6,6H74.134l7.555-11.93A2,2,0,0,0,80,27H65.417L68.965,8.374A2,2,0,0,0,65.311,6.93l-19,30A2,2,0,0,0,48,40H62.584L62.2,42H28a6.006,6.006,0,0,0-6-6H20V28a2,2,0,0,0-2-2H8a2,2,0,0,0-2,2v92a2,2,0,0,0,2,2H18a2,2,0,0,0,2-2v-8h2a6.006,6.006,0,0,0,6-6h72a6.006,6.006,0,0,0,6,6h2v8a2,2,0,0,0,2,2h10a2,2,0,0,0,2-2V28A2,2,0,0,0,120,26ZM24,66a2,2,0,0,1-2,2H20V60h2a2,2,0,0,1,2,2ZM20,80h2a2,2,0,0,1,2,2v4a2,2,0,0,1-2,2H20Zm2-4H20V72h2a6.006,6.006,0,0,0,6-6h72a6.006,6.006,0,0,0,6,6h2v4h-2a6.006,6.006,0,0,0-6,6H28A6.006,6.006,0,0,0,22,76Zm86-8h-2a2,2,0,0,1-2-2V62a2,2,0,0,1,2-2h2Zm-4,14a2,2,0,0,1,2-2h2v8h-2a2,2,0,0,1-2-2Zm0-40a2,2,0,0,1,2-2h2v8h-2a2,2,0,0,1-2-2ZM51.634,36,63.07,17.943,61.035,28.626A2,2,0,0,0,63,31H76.366L64.933,49.053l.882-4.635.006-.035,1.144-6.01A2,2,0,0,0,65,36Zm9.807,10L59.035,58.625a2,2,0,0,0,3.654,1.445L71.6,46H100a6.006,6.006,0,0,0,6,6h2v4h-2a6.006,6.006,0,0,0-6,6H28a6.006,6.006,0,0,0-6-6H20V52h2a6.006,6.006,0,0,0,6-6ZM22,40a2,2,0,0,1,2,2v4a2,2,0,0,1-2,2H20V40Zm-6,78H10V30h6Zm8-12a2,2,0,0,1-2,2H20v-8h2a2,2,0,0,1,2,2Zm4-4a6.006,6.006,0,0,0-6-6H20V92h2a6.006,6.006,0,0,0,6-6h72a6.006,6.006,0,0,0,6,6h2v4h-2a6.006,6.006,0,0,0-6,6Zm78,6a2,2,0,0,1-2-2v-4a2,2,0,0,1,2-2h2v8Zm12,10h-6V30h6Z"/><path d="M85.535,9.465a2,2,0,0,0-2.828,0l-4.242,4.242a2,2,0,0,0,2.828,2.828l4.242-4.242A2,2,0,0,0,85.535,9.465Z"/><path d="M88.293,25.535l4.242-4.242a2,2,0,1,0-2.828-2.828l-4.242,4.242a2,2,0,1,0,2.828,2.828Z"/><path d="M49.535,16.535a2,2,0,0,0,0-2.828L45.293,9.465a2,2,0,0,0-2.828,2.828l4.242,4.242A2,2,0,0,0,49.535,16.535Z"/><path d="M35.465,18.465a2,2,0,0,0,0,2.828l4.242,4.242a2,2,0,0,0,2.828-2.828l-4.242-4.242A2,2,0,0,0,35.465,18.465Z"/></g></svg>
