<?xml version="1.0" encoding="UTF-8"?>
<svg xmlns="http://www.w3.org/2000/svg" viewBox="0 0 64 64" width="512" height="512"><g id="Artboard_01" data-name="Artboard 01"><path d="M60,21H50a3,3,0,0,0-3,3H36a3,3,0,0,0-3,3V44.681a3,3,0,0,0,1.818,2.757L47,52.659V55H17V52.659l12.183-5.221A3,3,0,0,0,31,44.681V27a3,3,0,0,0-3-3H17a3,3,0,0,0-3-3H4a3,3,0,0,0-3,3V62a1,1,0,0,0,1,1H62a1,1,0,0,0,1-1V24A3,3,0,0,0,60,21ZM47,38H35V35H47ZM36,26H47v7H35V27A1,1,0,0,1,36,26Zm-.394,19.6a1,1,0,0,1-.606-.92V40H47V50.484ZM49,24a1,1,0,0,1,1-1H60a1,1,0,0,1,1,1V55H49ZM28.4,45.6,17,50.484V40H29v4.681A1,1,0,0,1,28.4,45.6ZM17,38V35H29v3ZM28,26a1,1,0,0,1,1,1v6H17V26ZM4,23H14a1,1,0,0,1,1,1V55H3V24A1,1,0,0,1,4,23ZM61,61H3V57H61Z"/><path d="M58,25H52a1,1,0,0,0-1,1v7a1,1,0,0,0,1,1h6a1,1,0,0,0,1-1V26A1,1,0,0,0,58,25Zm-1,7H53V27h4Z"/><path d="M6,34h6a1,1,0,0,0,1-1V26a1,1,0,0,0-1-1H6a1,1,0,0,0-1,1v7A1,1,0,0,0,6,34Zm1-7h4v5H7Z"/><path d="M9,13a3,3,0,1,0,3,3A3,3,0,0,0,9,13Zm0,4a1,1,0,1,1,1-1A1,1,0,0,1,9,17Z"/><path d="M5.5,9.938l1,1.731a5.086,5.086,0,0,1,5,0l1-1.731A7.124,7.124,0,0,0,5.5,9.938Z"/><path d="M14.5,6.472a11.2,11.2,0,0,0-11,0L4.5,8.2a9.153,9.153,0,0,1,9,0Z"/><path d="M16.5,3.007a15.269,15.269,0,0,0-15,0l1,1.732a13.225,13.225,0,0,1,13,0Z"/><path d="M55,13a3,3,0,1,0,3,3A3,3,0,0,0,55,13Zm0,4a1,1,0,1,1,1-1A1,1,0,0,1,55,17Z"/><path d="M51.5,9.938l1,1.731a5.086,5.086,0,0,1,5,0l1-1.731A7.124,7.124,0,0,0,51.5,9.938Z"/><path d="M60.5,6.472a11.2,11.2,0,0,0-11,0l1,1.732a9.153,9.153,0,0,1,9,0Z"/><path d="M62.5,3.007a15.269,15.269,0,0,0-15,0l1,1.732a13.225,13.225,0,0,1,13,0Z"/></g></svg>
