<svg height="480pt" viewBox="0 0 480 480" width="480pt" xmlns="http://www.w3.org/2000/svg"><path d="m440 0h-400c-22.082031.0273438-39.9726562 17.917969-40 40v400c.0273438 22.082031 17.917969 39.972656 40 40h400c22.082031-.027344 39.972656-17.917969 40-40v-400c-.027344-22.082031-17.917969-39.9726562-40-40zm24 440c0 13.253906-10.746094 24-24 24h-400c-13.253906 0-24-10.746094-24-24v-400c0-13.253906 10.746094-24 24-24h400c13.253906 0 24 10.746094 24 24zm0 0"/><path d="m248 48h-192c-4.417969 0-8 3.582031-8 8v64c0 4.417969 3.582031 8 8 8h192c4.417969 0 8-3.582031 8-8v-64c0-4.417969-3.582031-8-8-8zm-8 64h-176v-48h176zm0 0"/><path d="m248 160h-192c-4.417969 0-8 3.582031-8 8v256c0 4.417969 3.582031 8 8 8h192c4.417969 0 8-3.582031 8-8v-256c0-4.417969-3.582031-8-8-8zm-8 128h-48v-48h48zm-64 0h-48v-48h48zm-64 0h-48v-48h48zm-48 16h48v48h-48zm64 0h48v48h-48zm64 0h48v48h-48zm48-80h-48v-48h48zm-64 0h-48v-48h48zm-112-48h48v48h-48zm0 192h48v48h-48zm64 0h48v48h-48zm112 48h-48v-48h48zm0 0"/><path d="m280 272c4.417969 0 8-3.582031 8-8v-24h24c4.417969 0 8-3.582031 8-8s-3.582031-8-8-8h-32c-4.417969 0-8 3.582031-8 8v32c0 4.417969 3.582031 8 8 8zm0 0"/><path d="m440 224h-32c-4.417969 0-8 3.582031-8 8s3.582031 8 8 8h24v24c0 4.417969 3.582031 8 8 8s8-3.582031 8-8v-32c0-4.417969-3.582031-8-8-8zm0 0"/><path d="m312 416h-24v-24c0-4.417969-3.582031-8-8-8s-8 3.582031-8 8v32c0 4.417969 3.582031 8 8 8h32c4.417969 0 8-3.582031 8-8s-3.582031-8-8-8zm0 0"/><path d="m440 384c-4.417969 0-8 3.582031-8 8v24h-24c-4.417969 0-8 3.582031-8 8s3.582031 8 8 8h32c4.417969 0 8-3.582031 8-8v-32c0-4.417969-3.582031-8-8-8zm0 0"/><path d="m360 328c4.417969 0 8-3.582031 8-8v-8c0-4.417969-3.582031-8-8-8s-8 3.582031-8 8v8c0 4.417969 3.582031 8 8 8zm0 0"/><path d="m416 392v-80c0-9.832031-2.589844-19.488281-7.503906-28-1.382813-2.566406-4.050782-4.179688-6.964844-4.207031-2.917969-.03125-5.617188 1.53125-7.050781 4.070312-1.429688 2.539063-1.367188 5.65625.167969 8.136719 3.507812 6.082031 5.355468 12.980469 5.351562 20v72h-8v-72c0-17.671875-14.328125-32-32-32s-32 14.328125-32 32c0 4.417969 3.582031 8 8 8s8-3.582031 8-8c0-8.835938 7.164062-16 16-16s16 7.164062 16 16v72h-8v-40c0-4.417969-3.582031-8-8-8s-8 3.582031-8 8v40h-8v-48c0-4.417969-3.582031-8-8-8s-8 3.582031-8 8v48h-8v-72c-.003906-14.292969 7.617188-27.503906 19.992188-34.652344 12.378906-7.148437 27.628906-7.148437 40.007812-.003906 3.808594 2.050781 8.554688.703125 10.71875-3.042969 2.164062-3.742187.957031-8.53125-2.71875-10.804687-17.328125-10.003906-38.675781-10.003906-56.003906 0-17.324219 10.007812-28 28.496094-27.996094 48.503906v80c0 4.417969 3.582031 8 8 8h96c4.417969 0 8-3.582031 8-8zm0 0"/><path d="m288 192h144c4.417969 0 8-3.582031 8-8v-128c0-4.417969-3.582031-8-8-8h-144c-4.417969 0-8 3.582031-8 8v128c0 4.417969 3.582031 8 8 8zm40-16v-16c0-17.671875 14.328125-32 32-32s32 14.328125 32 32v16zm32-72c-4.417969 0-8-3.582031-8-8s3.582031-8 8-8 8 3.582031 8 8-3.582031 8-8 8zm-64-40h128v112h-16v-16c-.03125-20.664062-13.265625-38.992188-32.871094-45.519531 7.886719-6.40625 10.886719-17.082031 7.488282-26.660157-3.398438-9.574218-12.457032-15.972656-22.617188-15.972656s-19.21875 6.398438-22.617188 15.972656c-3.398437 9.578126-.398437 20.253907 7.488282 26.660157-19.605469 6.527343-32.839844 24.855469-32.871094 45.519531v16h-16zm0 0"/></svg>