<svg id="Capa_1" enable-background="new 0 0 512 512" height="512" viewBox="0 0 512 512" width="512" xmlns="http://www.w3.org/2000/svg"><g><path d="m376 0h-240c-33.084 0-60 26.916-60 60v316c0 33.084 26.916 60 60 60h20v16c0 11.028-8.972 20-20 20h-20v40h20c33.084 0 60-26.916 60-60v-16h40v76h40v-76h40v16c0 33.084 26.916 60 60 60h20v-40h-20c-11.028 0-20-8.972-20-20v-16h20c33.084 0 60-26.916 60-60v-316c0-33.084-26.916-60-60-60zm20 376c0 11.028-8.972 20-20 20h-240c-11.028 0-20-8.972-20-20v-316c0-11.028 8.972-20 20-20h240c11.028 0 20 8.972 20 20z"/><path d="m156 276h200v40h-200z"/><path d="m229.167 224.944 35.777 17.889 43.416-86.833h-40l14.473-28.944-35.777-17.889-43.416 86.833h40z"/></g></svg>